<?xml version="1.0" standalone="no"?>
<!DOCTYPE svg PUBLIC "-//W3C//DTD SVG 20010904//EN"
 "http://www.w3.org/TR/2001/REC-SVG-20010904/DTD/svg10.dtd">
<svg version="1.0" xmlns="http://www.w3.org/2000/svg"
 width="941.000000pt" height="453.000000pt" viewBox="0 0 941.000000 453.000000"
 preserveAspectRatio="xMidYMid meet">

<g transform="translate(0.000000,453.000000) scale(0.100000,-0.100000)"
fill="#000000" stroke="none">
<path d="M6164 3645 c-13 -20 -16 -42 -12 -106 l5 -80 -56 -69 c-31 -37 -82
-100 -114 -139 -65 -80 -107 -106 -206 -127 -170 -36 -433 -5 -826 97 -332 87
-383 98 -465 105 -158 12 -362 -27 -516 -100 -130 -62 -233 -135 -339 -241
-141 -142 -248 -322 -331 -555 -39 -110 -48 -128 -151 -280 -179 -266 -301
-366 -568 -465 -106 -39 -110 -41 -113 -72 -5 -52 22 -58 115 -27 193 64 359
165 462 281 131 146 304 405 336 503 56 174 126 314 216 435 47 63 188 201
254 247 228 161 537 222 790 155 55 -15 165 -45 245 -68 329 -93 545 -125 786
-117 199 7 240 22 345 127 41 42 92 101 113 133 20 31 52 68 72 83 60 46 65
61 47 128 -10 35 -13 61 -7 67 13 13 97 -7 173 -41 76 -34 90 -35 167 -9 223
77 627 61 661 -26 10 -26 -18 -90 -59 -140 -48 -59 -130 -132 -315 -281 -162
-131 -211 -153 -344 -154 -149 -1 -196 48 -213 224 -9 88 -14 110 -30 119 -13
7 -25 7 -42 -1 -22 -10 -24 -17 -24 -79 0 -138 29 -230 92 -288 55 -51 109
-67 226 -65 56 0 102 -2 102 -5 0 -24 -211 -364 -357 -574 -93 -134 -195 -259
-296 -365 -64 -68 -121 -185 -157 -330 -36 -142 -93 -315 -144 -437 -46 -109
-65 -239 -48 -328 6 -32 27 -92 47 -134 42 -87 40 -115 -9 -141 -29 -16 -42
-17 -110 -6 -102 15 -141 32 -161 72 -15 29 -16 45 -6 150 6 64 11 179 11 256
0 76 4 176 9 223 27 247 53 460 66 533 8 45 15 92 15 104 0 29 -31 46 -63 34
-28 -11 -38 -52 -58 -226 -13 -112 -23 -131 -57 -103 -43 37 -165 93 -251 114
-188 48 -441 21 -441 -47 0 -4 7 -15 17 -24 12 -13 27 -15 57 -11 200 27 349
11 467 -50 58 -30 167 -104 172 -117 2 -7 -1 -65 -9 -130 -7 -64 -16 -185 -18
-269 -3 -84 -8 -209 -12 -278 -8 -158 2 -200 60 -255 52 -50 122 -70 251 -70
84 0 92 2 129 30 76 58 85 131 29 245 -32 64 -38 86 -41 160 -5 94 17 195 65
300 44 96 75 195 123 395 21 89 86 236 105 239 18 2 16 -92 -5 -206 -11 -62
-27 -151 -36 -198 -8 -47 -31 -132 -50 -190 -29 -84 -35 -116 -31 -159 4 -51
7 -57 66 -112 41 -37 61 -64 59 -76 -5 -26 -46 -43 -110 -43 -46 0 -59 -4 -68
-19 -24 -47 2 -71 78 -71 82 0 128 16 155 53 54 71 42 137 -39 213 -30 28 -54
57 -54 66 0 8 9 41 21 74 53 153 91 361 130 703 11 99 13 106 53 155 58 72
189 252 272 376 66 97 272 436 307 505 15 29 56 66 262 233 132 108 239 213
271 268 25 42 29 60 29 120 0 84 -11 101 -89 138 -82 38 -175 51 -346 50 -155
-2 -184 -6 -357 -56 -37 -11 -46 -9 -100 15 -49 22 -202 57 -249 57 -7 0 -21
-11 -30 -25z"/>
<path d="M4282 2008 c-18 -18 -15 -34 13 -78 42 -66 58 -150 58 -295 0 -138
-15 -221 -55 -299 -31 -61 -109 -173 -172 -246 -82 -96 -116 -168 -116 -246 0
-79 -4 -75 205 -164 125 -53 160 -72 160 -86 0 -27 -73 -59 -166 -75 -67 -11
-87 -10 -155 4 -105 23 -232 85 -294 143 -70 66 -102 139 -159 364 -28 107
-63 242 -80 300 -16 58 -36 165 -44 238 -16 135 -25 162 -57 162 -37 0 -43
-24 -36 -150 4 -66 9 -126 12 -133 17 -44 -210 -176 -396 -230 -297 -86 -562
-120 -950 -121 -237 -1 -302 2 -385 18 -113 20 -255 63 -255 75 0 9 62 32 335
121 105 34 197 68 204 76 20 19 3 68 -25 72 -11 2 -172 -47 -358 -108 -294
-97 -338 -114 -348 -136 -21 -46 26 -77 205 -138 60 -20 163 -46 230 -58 112
-19 149 -20 452 -15 289 5 352 9 505 32 361 54 597 134 792 268 9 6 20 9 23 6
8 -9 71 -227 105 -364 35 -143 61 -213 100 -270 110 -160 394 -284 580 -254
127 20 223 71 253 132 35 71 1 122 -111 166 -29 12 -71 31 -94 42 -54 28 -37
39 63 39 103 0 177 23 190 58 20 52 -5 147 -54 199 -11 13 -51 33 -89 45 -42
14 -68 27 -68 36 0 8 20 48 45 88 81 134 112 275 102 469 -9 179 -66 325 -126
325 -15 0 -32 -5 -39 -12z m55 -993 c80 -24 120 -103 60 -119 -12 -3 -79 -6
-149 -6 -118 0 -128 1 -128 19 0 19 23 54 69 104 29 32 48 32 148 2z"/>
<path d="M2204 1559 c-34 -10 -67 -26 -74 -34 -17 -20 -5 -62 20 -70 21 -7
114 19 138 38 18 14 15 74 -4 81 -9 3 -16 6 -17 5 -1 0 -30 -9 -63 -20z"/>
</g>
</svg>
